# xmcd
#
# Track frame offsets:
#	150
#	14210
#	25971
#	44400
#	56803
#	71720
#	84925
#	94569
#	108617
#	121895
#	130986
#	145776
#	158100
#	171981
#	188993
#	201729
#	215714
#	228800
#	240815
#	255124
#
# Disc length: 3557 seconds
#
# Revision: 0
# Processed by: cddbd v1.5.2PL0 Copyright (c) Steve Scherf et al.
# Submitted via: EasyCDDAExtractor 16.0.6.1
#
DISCID=1d0de314
DTITLE=Ευσταθίου Δημήτρης - Ρεμπέτικα πορτραίτα 1-7-Ευσταθίου Δημήτρης
DYEAR=2010
DGENRE=Ρεμπέτικη
TTITLE0=Το βαπόρι απ' την Περσία [Βασ. Τσιτσάνης]
TTITLE1=Καναβουριές [Μιχάλης Δασκαλάκης]
TTITLE2=Το Χάρο τον αντάμωσαν [Παν. Τούντας]
TTITLE3=Ο χαρμάνης [Μάρκος Βαμβακάρης]
TTITLE4=Σαν πεθάνω στο καράβι [παραδ., διασκ. Κ. Καρουσάκης]
TTITLE5=Το μαύρο κομπολόϊ [Δημ. Ευσταθίου]
TTITLE6=Η δουλειά κάνει τους άντρες [Μ. Λοΐζος-Λ. Παπαδόπουλος]
TTITLE7=Βαρέθηκα τον ναργιλέ [Βαγγέλης Παπάζογλου]
TTITLE8=Μού τα φάγανε στα ζάρια [Δημ. Ευσταθίου]
TTITLE9=Ψηλά στην πολυκατοικία [Δημ. Ευσταθίου]
TTITLE10=Διογένης ο σοφός [Δημ. Ευσταθίου]
TTITLE11=Μπατίρης εγεννήθηκα [Δημ. Ευσταθίου]
TTITLE12=Μπεγλέρι και μαχαίρι [Δημ. Ευσταθίου]
TTITLE13=Υπάρχουν ακόμα ρεμπέτες [Δημ. Ευσταθίου]
TTITLE14=Πήραν τα φρύγανα φωτιά [Γ. Μουφλουζέλης]
TTITLE15=Για μιά γυναίκα χάθηκα [Βασ. Τσιτσάνης]
TTITLE16=Ένας αλήτης έχει πεθάνει [Δημ. Ευσταθίου]
TTITLE17=Ένα τσιγαράκι κι ένα τάλιρο [Δημ. Ευσταθίου]
TTITLE18=Ο φίλος μου ο Συριανός [Δημ. Ευσταθίου]
TTITLE19=Έπεσα στην ασωτία [Δημ. Ευσταθίου]
EXTD=
EXTT0=
EXTT1=
EXTT2=
EXTT3=
EXTT4=
EXTT5=
EXTT6=
EXTT7=
EXTT8=
EXTT9=
EXTT10=
EXTT11=
EXTT12=
EXTT13=
EXTT14=
EXTT15=
EXTT16=
EXTT17=
EXTT18=
EXTT19=
PLAYORDER=
